<svg width="76" height="91" viewBox="0 0 76 91" fill="none" xmlns="http://www.w3.org/2000/svg">
<path d="M75.7594 6.40938L69.05 12.3406L64.9781 12.4031L56.4469 21.325C61.9469 27.1688 65.3406 35.0219 65.3406 43.6813C65.3406 61.7219 50.7125 76.3531 32.6688 76.3531C14.625 76.3531 0 61.7219 0 43.6813C0 25.6375 14.6281 11.0094 32.6688 11.0094C40.9344 11.0094 48.4594 14.1 54.2125 19.1594L62.4469 10.925L62.4531 7.29688L68.7719 0L68.7656 6.49688L75.7594 6.40938ZM53.1438 24.6281L44.8375 32.9375C47.65 35.9906 49.4094 40.0313 49.4094 44.5094C49.4094 53.9625 41.75 61.6219 32.2969 61.6219C22.8438 61.6219 15.1813 53.9625 15.1813 44.5094C15.1813 35.0594 22.8438 27.3938 32.2969 27.3938C36.1437 27.3938 39.6563 28.7094 42.5188 30.8531L50.9125 22.4594C46.0094 18.2406 39.6469 15.675 32.6688 15.675C17.2031 15.675 4.66563 28.2156 4.66563 43.6813C4.66563 59.1469 17.2031 71.6813 32.6688 71.6813C48.1344 71.6813 60.6719 59.1438 60.6719 43.6813C60.6688 36.3125 57.8 29.6281 53.1438 24.6281ZM32.1656 49.4344C29.5906 49.4344 27.5 47.3469 27.5 44.7688C27.5 42.1906 29.5906 40.1 32.1656 40.1C32.4906 40.1 32.7781 40.2219 33.0875 40.2875L40.3156 33.0594C38.0406 31.4625 35.2875 30.5094 32.2969 30.5094C24.5625 30.5094 18.2969 36.7813 18.2969 44.5125C18.2969 52.2438 24.5656 58.5125 32.2969 58.5125C40.0281 58.5125 46.2969 52.2438 46.2969 44.5125C46.2969 40.8938 44.8875 37.6281 42.6313 35.1406L35.8031 41.9719C36.4063 42.7594 36.8312 43.7031 36.8312 44.7719C36.8344 47.3469 34.7438 49.4344 32.1656 49.4344ZM18.675 78.7969C19.6031 79.2656 20.5563 79.6875 21.5344 80.0656L16.0094 89.6344C15.5781 90.3781 14.6281 90.6281 13.8813 90.2031C13.1406 89.775 12.8844 88.825 13.3125 88.0781L18.675 78.7969ZM34.3031 81.2438V85.6031C34.3031 86.4625 33.6031 87.1594 32.7469 87.1594C31.8875 87.1594 31.1906 86.4625 31.1906 85.6031V81.2438C31.7094 81.2688 32.2219 81.3219 32.7469 81.3219C33.2719 81.3219 33.7844 81.2688 34.3031 81.2438ZM53.35 88.0813C53.7781 88.825 53.525 89.7781 52.7781 90.2063C52.0312 90.6344 51.0844 90.3844 50.65 89.6375L45.1281 80.0688C46.1031 79.6906 47.0594 79.2688 47.9875 78.8L53.35 88.0813Z" fill="#2C92D5"/>
</svg>
