<svg width="88" height="80" viewBox="0 0 88 80" fill="none" xmlns="http://www.w3.org/2000/svg">
<path d="M7.71875 69.4875C11.975 69.4875 15.4437 66.0188 15.4437 61.7625V18.0125C15.3315 16.0413 14.4694 14.1878 13.0342 12.8319C11.5989 11.4761 9.69938 10.7207 7.725 10.7207C5.75062 10.7207 3.85105 11.4761 2.41583 12.8319C0.980599 14.1878 0.118478 16.0413 0.00625029 18.0125L0 61.7625C0 66.0188 3.4625 69.4875 7.71875 69.4875ZM5.14375 18.0125C5.14375 17.3296 5.41504 16.6746 5.89795 16.1917C6.38086 15.7088 7.03582 15.4375 7.71875 15.4375C8.40168 15.4375 9.05664 15.7088 9.53955 16.1917C10.0225 16.6746 10.2938 17.3296 10.2938 18.0125V61.7625C10.2938 62.4454 10.0225 63.1004 9.53955 63.5833C9.05664 64.0662 8.40168 64.3375 7.71875 64.3375C7.03582 64.3375 6.38086 64.0662 5.89795 63.5833C5.41504 63.1004 5.14375 62.4454 5.14375 61.7625V18.0125ZM30.8813 69.4875C35.1375 69.4875 38.6 66.0188 38.6 61.7625V38.6C38.6 34.35 35.1375 30.8813 30.8813 30.8813C26.625 30.8813 23.1625 34.3437 23.1625 38.6V61.7625C23.1625 66.0188 26.625 69.4875 30.8813 69.4875ZM28.3125 38.6C28.3125 37.9171 28.5838 37.2621 29.0667 36.7792C29.5496 36.2963 30.2046 36.025 30.8875 36.025C31.5704 36.025 32.2254 36.2963 32.7083 36.7792C33.1912 37.2621 33.4625 37.9171 33.4625 38.6V61.7625C33.4625 62.4454 33.1912 63.1004 32.7083 63.5833C32.2254 64.0662 31.5704 64.3375 30.8875 64.3375C30.2046 64.3375 29.5496 64.0662 29.0667 63.5833C28.5838 63.1004 28.3125 62.4454 28.3125 61.7625V38.6ZM77.2125 69.4875C81.4688 69.4875 84.9313 66.0188 84.9313 61.7625V46.325C84.9313 42.0687 81.4688 38.6 77.2125 38.6C72.9563 38.6 69.4938 42.0687 69.4938 46.325V61.7625C69.4938 66.0188 72.9563 69.4875 77.2125 69.4875ZM74.6375 46.325C74.6375 45.6421 74.9088 44.9871 75.3917 44.5042C75.8746 44.0213 76.5296 43.75 77.2125 43.75C77.8954 43.75 78.5504 44.0213 79.0333 44.5042C79.5162 44.9871 79.7875 45.6421 79.7875 46.325V61.7625C79.7875 62.4454 79.5162 63.1004 79.0333 63.5833C78.5504 64.0662 77.8954 64.3375 77.2125 64.3375C76.5296 64.3375 75.8746 64.0662 75.3917 63.5833C74.9088 63.1004 74.6375 62.4454 74.6375 61.7625V46.325ZM54.05 69.4875C58.3062 69.4875 61.7688 66.0188 61.7688 61.7625V7.71875C61.7688 3.46875 58.3062 0 54.05 0C49.7937 0 46.3312 3.4625 46.3312 7.71875V61.7625C46.3312 66.0188 49.7937 69.4875 54.05 69.4875ZM51.475 7.71875C51.475 7.03582 51.7463 6.38086 52.2292 5.89795C52.7121 5.41504 53.3671 5.14375 54.05 5.14375C54.7329 5.14375 55.3879 5.41504 55.8708 5.89795C56.3537 6.38086 56.625 7.03582 56.625 7.71875V61.7625C56.625 62.4454 56.3537 63.1004 55.8708 63.5833C55.3879 64.0662 54.7329 64.3375 54.05 64.3375C53.3671 64.3375 52.7121 64.0662 52.2292 63.5833C51.7463 63.1004 51.475 62.4454 51.475 61.7625V7.71875ZM0 74.6312H87.5V79.7812H0V74.6312Z" fill="#2C92D5"/>
</svg>
