<svg width="73" height="89" viewBox="0 0 73 89" fill="none" xmlns="http://www.w3.org/2000/svg">
<path fill-rule="evenodd" clip-rule="evenodd" d="M51.5046 0.117315C58.4075 -0.86881 64.5833 4.48752 64.5833 11.4605V17.1959C69.5396 19.8157 72.9167 25.0228 72.9167 31.0187V72.6852C72.9167 81.3148 65.9212 88.3102 57.2917 88.3102H15.625C6.99554 88.3102 0 81.3148 0 72.6852V14.3521C0 14.3133 0.000708182 14.2747 0.00208318 14.2364C0.000708182 14.1764 0 14.1162 0 14.0559C0 10.2799 2.77658 7.07844 6.51471 6.54444L51.5046 0.117315ZM6.25 21.6437V72.6852C6.25 77.8631 10.4473 82.0602 15.625 82.0602H57.2917C62.4692 82.0602 66.6667 77.8631 66.6667 72.6852V31.0187C66.6667 25.8411 62.4692 21.6437 57.2917 21.6437H6.25ZM7.58779 15.3937H58.3333V11.4605C58.3333 8.29094 55.5262 5.85623 52.3883 6.30448L7.39858 12.7316C6.73954 12.8258 6.25 13.3902 6.25 14.0559C6.25 14.7948 6.84896 15.3937 7.58779 15.3937ZM16.6667 43.5186C16.6667 41.7927 18.0658 40.3936 19.7917 40.3936H53.125C54.8508 40.3936 56.25 41.7927 56.25 43.5186C56.25 45.2448 54.8508 46.6436 53.125 46.6436H19.7917C18.0658 46.6436 16.6667 45.2448 16.6667 43.5186ZM16.6667 58.1019C16.6667 56.3761 18.0658 54.9769 19.7917 54.9769H42.7083C44.4342 54.9769 45.8333 56.3761 45.8333 58.1019C45.8333 59.8281 44.4342 61.2269 42.7083 61.2269H19.7917C18.0658 61.2269 16.6667 59.8281 16.6667 58.1019Z" fill="#2C92D5"/>
</svg>
