<svg width="91" height="91" viewBox="0 0 91 91" fill="none" xmlns="http://www.w3.org/2000/svg">
<path d="M89.15 84.75L78.5429 74.1429C81.4857 70.2786 83.2571 65.4714 83.2571 60.2571C83.2477 54.1614 80.821 48.3182 76.5093 44.0092C72.1976 39.7002 66.3529 37.2771 60.2571 37.2714C54.1639 37.2809 48.3228 39.7056 44.0142 44.0142C39.7056 48.3228 37.2809 54.1639 37.2714 60.2571C37.2771 66.3541 39.7011 72.1999 44.0117 76.5118C48.3223 80.8237 54.1673 83.2496 60.2643 83.2571C65.4857 83.2571 70.2929 81.4857 74.15 78.5429L84.7571 89.1429C85.0435 89.4325 85.3844 89.6624 85.7602 89.8193C86.136 89.9762 86.5392 90.057 86.9464 90.057C87.3537 90.057 87.7569 89.9762 88.1327 89.8193C88.5085 89.6624 88.8494 89.4325 89.1357 89.1429C89.4258 88.8558 89.6564 88.5142 89.8142 88.1378C89.972 87.7614 90.0539 87.3575 90.0552 86.9494C90.0566 86.5413 89.9773 86.1369 89.8219 85.7594C89.6666 85.382 89.4382 85.039 89.15 84.75ZM43.4786 60.2571C43.4842 55.807 45.2546 51.5408 48.4013 48.3941C51.548 45.2474 55.8142 43.4771 60.2643 43.4714C64.7161 43.4714 68.9856 45.2399 72.1336 48.3878C75.2815 51.5358 77.05 55.8053 77.05 60.2571C77.05 64.709 75.2815 68.9785 72.1336 72.1264C68.9856 75.2744 64.7161 77.0429 60.2643 77.0429C55.8148 77.0353 51.5496 75.2644 48.4033 72.1181C45.257 68.9718 43.4861 64.7067 43.4786 60.2571ZM69.8714 23.2929C69.8714 25.0071 68.4786 26.3929 66.7643 26.3929H35.7143C34.8921 26.3929 34.1036 26.0663 33.5223 25.4849C32.9409 24.9035 32.6143 24.115 32.6143 23.2929C32.6143 22.4707 32.9409 21.6822 33.5223 21.1008C34.1036 20.5195 34.8921 20.1929 35.7143 20.1929H66.7643C68.4786 20.1929 69.8714 21.5786 69.8714 23.2929ZM10.3571 83.8429H31.0571C31.8448 83.8963 32.5828 84.2469 33.1218 84.8237C33.6608 85.4005 33.9606 86.1605 33.9606 86.95C33.9606 87.7395 33.6608 88.4995 33.1218 89.0763C32.5828 89.6531 31.8448 90.0037 31.0571 90.0571H10.3571C4.65714 90.0571 0 85.4143 0 79.7V24.4571C0 23.0643 0.5 21.7143 1.39286 20.6429L17.0643 2C17.5898 1.37456 18.2457 0.871505 18.986 0.52604C19.7262 0.180574 20.5331 0.00104035 21.35 0H71.9357C77.6429 0 82.2929 4.64286 82.2929 10.3571V32.6C82.2929 33.4241 81.9655 34.2144 81.3828 34.7971C80.8001 35.3798 80.0098 35.7071 79.1857 35.7071C78.3616 35.7071 77.5713 35.3798 76.9886 34.7971C76.4059 34.2144 76.0786 33.4241 76.0786 32.6V10.35C76.0767 9.25495 75.6413 8.20519 74.8677 7.43021C74.094 6.65523 73.045 6.21806 71.95 6.21429H26.4V24.1714C26.3868 25.4805 25.8555 26.7311 24.9225 27.6494C23.9894 28.5677 22.7306 29.0791 21.4214 29.0714H6.22143V79.7071C6.22143 81.9857 8.07857 83.8429 10.3571 83.8429ZM20.1929 7.92857L7.64286 22.8571H20.1929V7.92857ZM27.9571 54.4286C28.7812 54.4286 29.5715 54.1012 30.1542 53.5185C30.7369 52.9358 31.0643 52.1455 31.0643 51.3214C31.0643 50.4974 30.7369 49.7071 30.1542 49.1243C29.5715 48.5416 28.7812 48.2143 27.9571 48.2143H17.0857C16.2616 48.2143 15.4713 48.5416 14.8886 49.1243C14.3059 49.7071 13.9786 50.4974 13.9786 51.3214C13.9786 52.1455 14.3059 52.9358 14.8886 53.5185C15.4713 54.1012 16.2616 54.4286 17.0857 54.4286H27.9571ZM27.9571 68.6929C28.7803 68.6929 29.5697 68.3659 30.1517 67.7838C30.7337 67.2018 31.0607 66.4124 31.0607 65.5893C31.0607 64.7662 30.7337 63.9768 30.1517 63.3947C29.5697 62.8127 28.7803 62.4857 27.9571 62.4857H17.0857C16.2626 62.4857 15.4732 62.8127 14.8912 63.3947C14.3091 63.9768 13.9821 64.7662 13.9821 65.5893C13.9821 66.4124 14.3091 67.2018 14.8912 67.7838C15.4732 68.3659 16.2626 68.6929 17.0857 68.6929H27.9571ZM31.0571 34.2H17.0857C16.2626 34.2 15.4732 34.527 14.8912 35.109C14.3091 35.691 13.9821 36.4805 13.9821 37.3036C13.9821 38.1267 14.3091 38.9161 14.8912 39.4981C15.4732 40.0802 16.2626 40.4071 17.0857 40.4071H31.0571C31.8803 40.4071 32.6697 40.0802 33.2517 39.4981C33.8337 38.9161 34.1607 38.1267 34.1607 37.3036C34.1607 36.4805 33.8337 35.691 33.2517 35.109C32.6697 34.527 31.8803 34.2 31.0571 34.2Z" fill="#2C92D5"/>
</svg>
