<svg width="51" height="48" viewBox="0 0 51 48" fill="none" xmlns="http://www.w3.org/2000/svg">
<path d="M25.1402 9.17538C28.5068 9.17538 31.6627 10.1342 34.3328 11.7853V11.7552C34.4403 10.8264 34.7241 9.95362 35.1454 9.16678C32.2045 7.46842 28.7777 6.4967 25.1402 6.4967C21.5371 6.4967 18.1533 7.44693 15.2295 9.10659C15.6767 9.89772 15.969 10.7792 16.0808 11.7079C18.7208 10.0998 21.8251 9.17538 25.1402 9.17538Z" fill="#2C92D5"/>
<path d="M6.4836 19.0001C5.50328 21.3649 4.96582 23.9619 4.96582 26.675C4.96582 27.4317 5.00882 28.1799 5.09051 28.9065C5.65806 28.7388 6.26001 28.6528 6.88776 28.6528C7.18874 28.6528 7.48111 28.6743 7.76919 28.7216C7.6875 28.0509 7.6445 27.3758 7.6445 26.6793C7.6445 23.9361 8.28085 21.3391 9.41595 19.013L6.4836 19.0001Z" fill="#2C92D5"/>
<path d="M43.5338 28.6528C44.11 28.6528 44.6733 28.7302 45.1935 28.8764C45.2709 28.1583 45.3139 27.4274 45.3139 26.6793C45.3139 23.9705 44.7807 21.3821 43.7961 19.013L40.8638 19.0044C42.0032 21.3262 42.6352 23.9361 42.6352 26.6793C42.6352 27.3801 42.5922 28.0637 42.5148 28.7431C42.8545 28.6743 43.1899 28.6528 43.5338 28.6528Z" fill="#2C92D5"/>
<path d="M15.7236 41.4142C15.9042 41.9087 16.0246 42.4246 16.0891 42.9621V43.0524L16.2439 44.7722C18.9312 46.0965 21.9452 46.8446 25.1313 46.8446C28.3775 46.8446 31.4603 46.075 34.182 44.6905L34.3153 43.0524L34.3239 43.0094V42.9664C34.3927 42.3902 34.526 41.8313 34.7281 41.3067C31.9763 43.1169 28.6828 44.1703 25.1313 44.1703C21.67 44.166 18.4453 43.1512 15.7236 41.4142Z" fill="#2C92D5"/>
<path d="M1.73735 16.4375L12.0264 16.4461C13.0411 16.4461 13.8366 15.5819 13.7506 14.5758L13.5399 12.0605C13.2991 10.0826 11.9103 8.50897 10.0916 7.94142C9.91098 7.88123 9.72179 7.98872 9.6616 8.1693L7.80415 13.4708L7.38279 10.0053H7.66226C7.83425 10.0053 7.97184 9.86766 7.97184 9.69568V8.74116C7.97184 8.57347 7.83425 8.43158 7.66226 8.43158H6.11009C5.93811 8.43158 5.80052 8.57347 5.80052 8.74116V9.69568C5.80052 9.86766 5.93811 10.0053 6.11009 10.0053H6.38957L5.9639 13.4708L4.11076 8.1693C4.04626 7.99302 3.85278 7.88553 3.68079 7.94142C1.85774 8.50897 0.468956 10.0826 0.232477 12.0605L0.0174945 14.5629C-0.0641991 15.569 0.731235 16.4375 1.73735 16.4375Z" fill="#2C92D5"/>
<mask id="mask0_203_5115" style="mask-type:luminance" maskUnits="userSpaceOnUse" x="2" y="0" width="10" height="8">
<path d="M2.20166 0H11.0073V7.91135H2.20166V0Z" fill="white"/>
</mask>
<g mask="url(#mask0_203_5115)">
<path d="M6.88357 7.49858C8.956 7.49858 10.6329 5.81742 10.6329 3.74929C10.6329 1.68116 8.9517 0 6.88357 0C4.80684 0 3.13428 1.68116 3.13428 3.74929C3.13428 5.81742 4.81544 7.49858 6.88357 7.49858Z" fill="#2C92D5"/>
</g>
<mask id="mask1_203_5115" style="mask-type:luminance" maskUnits="userSpaceOnUse" x="36" y="7" width="15" height="10">
<path d="M36.3232 7.91132H50.2842V16.717H36.3232V7.91132Z" fill="white"/>
</mask>
<g mask="url(#mask1_203_5115)">
<path d="M38.3828 16.4375L48.6719 16.4461C49.6866 16.4461 50.482 15.5819 50.396 14.5758L50.1853 12.0605C49.9446 10.0826 48.5558 8.50897 46.737 7.94142C46.5564 7.88123 46.3672 7.98872 46.3071 8.1693L44.4496 13.4708L44.0239 10.0053H44.3077C44.4754 10.0053 44.613 9.86766 44.613 9.69568V8.74116C44.613 8.57347 44.4754 8.43158 44.3077 8.43158H42.7512C42.5836 8.43158 42.446 8.57347 42.446 8.74116V9.69568C42.446 9.86766 42.5836 10.0053 42.7512 10.0053H43.035L42.6094 13.4708L40.7605 8.1693C40.696 7.99302 40.5025 7.88553 40.3305 7.94142C38.5118 8.50897 37.1187 10.0826 36.8822 12.0605L36.6715 14.5629C36.5813 15.569 37.3767 16.4375 38.3828 16.4375Z" fill="#2C92D5"/>
</g>
<mask id="mask2_203_5115" style="mask-type:luminance" maskUnits="userSpaceOnUse" x="39" y="0" width="9" height="8">
<path d="M39.6255 0H47.3305V7.91135H39.6255V0Z" fill="white"/>
</mask>
<g mask="url(#mask2_203_5115)">
<path d="M43.53 7.49858C45.6024 7.49858 47.2792 5.81742 47.2792 3.74929C47.2792 1.68116 45.5981 0 43.53 0C41.4532 0 39.7764 1.68116 39.7764 3.74929C39.7764 5.81742 41.4575 7.49858 43.53 7.49858Z" fill="#2C92D5"/>
</g>
<mask id="mask3_203_5115" style="mask-type:luminance" maskUnits="userSpaceOnUse" x="0" y="38" width="15" height="10">
<path d="M0 38.7312H14.3092V47.8808H0V38.7312Z" fill="white"/>
</mask>
<g mask="url(#mask3_203_5115)">
<path d="M10.0911 39.1526C9.91049 39.101 9.72131 39.1998 9.66111 39.3804L7.80366 44.6862L7.3823 41.2164H7.66178C7.83376 41.2164 7.97135 41.0788 7.97135 40.9111V39.9566C7.97135 39.7846 7.83376 39.647 7.66178 39.647H6.1096C5.93762 39.647 5.80003 39.7846 5.80003 39.9566V40.9111C5.80003 41.0788 5.93762 41.2164 6.1096 41.2164H6.38908L5.96342 44.6862L4.11027 39.3804C4.04577 39.2084 3.85229 39.101 3.6803 39.1526C1.85725 39.7201 0.468468 41.2981 0.231988 43.2759L0.0170062 45.7783C-0.0646874 46.7844 0.730747 47.653 1.73686 47.653L12.0259 47.6616C13.0406 47.6616 13.8361 46.7973 13.7501 45.7912L13.5394 43.2759C13.2986 41.2981 11.9098 39.7158 10.0911 39.1526Z" fill="#2C92D5"/>
</g>
<path d="M3.13428 34.969C3.13428 37.0371 4.81544 38.7183 6.88357 38.7183C8.956 38.7183 10.6329 37.0371 10.6329 34.969C10.6329 32.9009 8.9517 31.2197 6.88357 31.2197C4.81544 31.2197 3.13428 32.8966 3.13428 34.969Z" fill="#2C92D5"/>
<mask id="mask4_203_5115" style="mask-type:luminance" maskUnits="userSpaceOnUse" x="36" y="38" width="15" height="10">
<path d="M36.3232 38.7312H50.2842V47.8808H36.3232V38.7312Z" fill="white"/>
</mask>
<g mask="url(#mask4_203_5115)">
<path d="M46.7328 39.1526C46.5522 39.101 46.3587 39.1998 46.3028 39.3804L44.4454 44.6862L44.0197 41.2164H44.3035C44.4712 41.2164 44.6087 41.0788 44.6087 40.9111V39.9566C44.6087 39.7846 44.4712 39.647 44.3035 39.647H42.747C42.5793 39.647 42.4417 39.7846 42.4417 39.9566V40.9111C42.4417 41.0788 42.5793 41.2164 42.747 41.2164H43.0308L42.6051 44.6862L40.752 39.3804C40.6918 39.2084 40.4983 39.101 40.322 39.1526C38.5033 39.7201 37.1145 41.2981 36.878 43.2759L36.663 45.7783C36.5813 46.7844 37.3767 47.653 38.3829 47.653L48.6719 47.6616C49.6866 47.6616 50.4821 46.7973 50.3961 45.7912L50.1854 43.2759C49.9446 41.2981 48.5515 39.7158 46.7328 39.1526Z" fill="#2C92D5"/>
</g>
<path d="M43.53 38.7183C45.6024 38.7183 47.2792 37.0371 47.2792 34.969C47.2792 32.9009 45.5981 31.2197 43.53 31.2197C41.4532 31.2197 39.7764 32.9009 39.7764 34.969C39.7764 37.0371 41.4575 38.7183 43.53 38.7183Z" fill="#2C92D5"/>
<path d="M13.5356 33.8941C13.2991 33.8941 13.1143 34.079 13.1143 34.3111V34.9002C13.1143 35.1324 13.2991 35.3172 13.5356 35.3172H36.7494C36.9816 35.3172 37.1665 35.1324 37.1665 34.9002V34.3111C37.1665 34.079 36.9816 33.8941 36.7494 33.8941H36.2421V22.0399C36.2421 21.5713 35.8594 21.1886 35.395 21.1886H31.276V33.8855H30.3515V18.5486C30.3515 18.08 29.9689 17.7016 29.5045 17.7016H20.8106C20.3463 17.7016 19.9636 18.0757 19.9636 18.5486V33.8855H19.0392V21.1886H14.89C14.4256 21.1886 14.043 21.5713 14.043 22.0399V33.8855H13.5356V33.8941ZM33.1162 23.7684C33.1162 23.5534 33.2925 23.3857 33.4989 23.3857H34.0062C34.2212 23.3857 34.3889 23.5534 34.3889 23.7684V24.8906C34.3889 25.1056 34.2126 25.2733 34.0062 25.2733H33.4989C33.2839 25.2733 33.1162 25.097 33.1162 24.8906V23.7684ZM33.1162 27.2554C33.1162 27.0447 33.2925 26.8684 33.4989 26.8684H34.0062C34.2212 26.8684 34.3889 27.0447 34.3889 27.2554V28.3776C34.3889 28.5883 34.2126 28.7646 34.0062 28.7646H33.4989C33.2839 28.7646 33.1162 28.5883 33.1162 28.3776V27.2554ZM33.1162 30.7467C33.1162 30.536 33.2925 30.3598 33.4989 30.3598H34.0062C34.2212 30.3598 34.3889 30.536 34.3889 30.7467V31.8646C34.3889 32.0796 34.2126 32.2516 34.0062 32.2516H33.4989C33.2839 32.2516 33.1162 32.0796 33.1162 31.8646V30.7467ZM27.2128 20.2771C27.2128 20.0664 27.3891 19.8901 27.5955 19.8901H28.1114C28.3221 19.8901 28.4898 20.0578 28.4898 20.2771V21.395C28.4898 21.61 28.3178 21.782 28.1114 21.782H27.5955C27.3848 21.782 27.2128 21.61 27.2128 21.395V20.2771ZM27.2128 23.7684C27.2128 23.5534 27.3891 23.3857 27.5955 23.3857H28.1114C28.3221 23.3857 28.4898 23.5534 28.4898 23.7684V24.8906C28.4898 25.1056 28.3178 25.2733 28.1114 25.2733H27.5955C27.3848 25.2733 27.2128 25.1056 27.2128 24.8906V23.7684ZM27.2128 27.2554C27.2128 27.0447 27.3891 26.877 27.5955 26.877H28.1114C28.3221 26.877 28.4898 27.049 28.4898 27.2554V28.3776C28.4898 28.5883 28.3178 28.7646 28.1114 28.7646H27.5955C27.3848 28.7646 27.2128 28.5883 27.2128 28.3776V27.2554ZM27.2128 30.7467C27.2128 30.536 27.3891 30.3641 27.5955 30.3641H28.1114C28.3221 30.3641 28.4898 30.5403 28.4898 30.7467V31.8646C28.4898 32.0796 28.3178 32.2516 28.1114 32.2516H27.5955C27.3848 32.2516 27.2128 32.0796 27.2128 31.8646V30.7467ZM24.5169 20.2771C24.5169 20.0664 24.6932 19.8901 24.9039 19.8901H25.4198C25.6305 19.8901 25.8025 20.0578 25.8025 20.2771V21.395C25.8025 21.61 25.6262 21.782 25.4198 21.782H24.9039C24.6932 21.782 24.5169 21.61 24.5169 21.395V20.2771ZM24.5169 23.7684C24.5169 23.5534 24.6932 23.3857 24.9039 23.3857H25.4198C25.6305 23.3857 25.8025 23.5534 25.8025 23.7684V24.8906C25.8025 25.1056 25.6262 25.2733 25.4198 25.2733H24.9039C24.6932 25.2733 24.5169 25.1056 24.5169 24.8906V23.7684ZM24.5169 27.2554C24.5169 27.0447 24.6932 26.877 24.9039 26.877H25.4198C25.6305 26.877 25.8025 27.049 25.8025 27.2554V28.3776C25.8025 28.5883 25.6262 28.7646 25.4198 28.7646H24.9039C24.6932 28.7646 24.5169 28.5883 24.5169 28.3776V27.2554ZM24.5169 30.7467C24.5169 30.536 24.6932 30.3641 24.9039 30.3641H25.4198C25.6305 30.3641 25.8025 30.5403 25.8025 30.7467V31.8646C25.8025 32.0796 25.6262 32.2516 25.4198 32.2516H24.9039C24.6932 32.2516 24.5169 32.0796 24.5169 31.8646V30.7467ZM21.8167 20.2771C21.8167 20.0664 21.993 19.8901 22.1994 19.8901H22.7154C22.926 19.8901 23.1023 20.0578 23.1023 20.2771V21.395C23.1023 21.61 22.926 21.782 22.7154 21.782H22.1994C21.9887 21.782 21.8167 21.61 21.8167 21.395V20.2771ZM21.8167 23.7684C21.8167 23.5534 21.993 23.3857 22.1994 23.3857H22.7154C22.926 23.3857 23.1023 23.5534 23.1023 23.7684V24.8906C23.1023 25.1056 22.926 25.2733 22.7154 25.2733H22.1994C21.9887 25.2733 21.8167 25.1056 21.8167 24.8906V23.7684ZM21.8167 27.2554C21.8167 27.0447 21.993 26.877 22.1994 26.877H22.7154C22.926 26.877 23.1023 27.049 23.1023 27.2554V28.3776C23.1023 28.5883 22.926 28.7646 22.7154 28.7646H22.1994C21.9887 28.7646 21.8167 28.5883 21.8167 28.3776V27.2554ZM21.8167 30.7467C21.8167 30.536 21.993 30.3641 22.1994 30.3641H22.7154C22.926 30.3641 23.1023 30.5403 23.1023 30.7467V31.8646C23.1023 32.0796 22.926 32.2516 22.7154 32.2516H22.1994C21.9887 32.2516 21.8167 32.0796 21.8167 31.8646V30.7467ZM15.9133 23.7684C15.9133 23.5534 16.0896 23.3857 16.296 23.3857H16.812C17.0226 23.3857 17.1946 23.5534 17.1946 23.7684V24.8906C17.1946 25.1056 17.0183 25.2733 16.812 25.2733H16.296C16.0853 25.2733 15.9133 25.097 15.9133 24.8906V23.7684ZM15.9133 27.2554C15.9133 27.0447 16.0896 26.8684 16.296 26.8684H16.812C17.0226 26.8684 17.1946 27.0447 17.1946 27.2554V28.3776C17.1946 28.5883 17.0183 28.7646 16.812 28.7646H16.296C16.0853 28.7646 15.9133 28.5883 15.9133 28.3776V27.2554ZM15.9133 30.7467C15.9133 30.536 16.0896 30.3598 16.296 30.3598H16.812C17.0226 30.3598 17.1946 30.536 17.1946 30.7467V31.8646C17.1946 32.0796 17.0183 32.2516 16.812 32.2516H16.296C16.0853 32.2516 15.9133 32.0796 15.9133 31.8646V30.7467Z" fill="#2C92D5"/>
</svg>
