<svg width="48" height="48" viewBox="0 0 48 48" fill="none" xmlns="http://www.w3.org/2000/svg">
<mask id="mask0_203_5100" style="mask-type:luminance" maskUnits="userSpaceOnUse" x="0" y="0" width="48" height="48">
<path d="M0 0H47.8809V47.8809H0V0Z" fill="white"/>
</mask>
<g mask="url(#mask0_203_5100)">
<path d="M47.6616 23.8329C47.6616 24.6112 47.6229 25.3894 47.5455 26.1676C47.4724 26.9416 47.3563 27.7155 47.2058 28.4809C47.051 29.2462 46.8618 30.0029 46.634 30.7468C46.4104 31.4949 46.1481 32.2301 45.8471 32.9525C45.5504 33.6705 45.2151 34.3757 44.8496 35.0636C44.4798 35.7516 44.08 36.4223 43.6457 37.0715C43.2114 37.7208 42.7471 38.3442 42.2526 38.9505C41.7582 39.5524 41.2336 40.1286 40.6832 40.6832C40.1286 41.2336 39.5524 41.7582 38.9505 42.2526C38.3442 42.7471 37.7208 43.2114 37.0715 43.6457C36.4223 44.08 35.7516 44.4798 35.0636 44.8496C34.3757 45.2151 33.6705 45.5504 32.9525 45.8471C32.2301 46.1481 31.4949 46.4104 30.7468 46.634C30.0029 46.8618 29.2462 47.051 28.4809 47.2058C27.7155 47.3563 26.9416 47.4724 26.1676 47.5455C25.3894 47.6229 24.6112 47.6616 23.8329 47.6616C23.0504 47.6616 22.2722 47.6229 21.4939 47.5455C20.72 47.4724 19.9461 47.3563 19.1807 47.2058C18.4154 47.051 17.6586 46.8618 16.9148 46.634C16.1667 46.4104 15.4314 46.1481 14.7134 45.8471C13.991 45.5504 13.2859 45.2151 12.598 44.8496C11.91 44.4798 11.2393 44.08 10.59 43.6457C9.94078 43.2114 9.31733 42.7471 8.71108 42.2526C8.10913 41.7582 7.53298 41.2336 6.97832 40.6832C6.42797 40.1286 5.90341 39.5524 5.40895 38.9505C4.91449 38.3442 4.45013 37.7208 4.01587 37.0715C3.5816 36.4223 3.18174 35.7516 2.81627 35.0636C2.4465 34.3757 2.11113 33.6705 1.81445 32.9525C1.51348 32.2301 1.2512 31.4949 1.02762 30.7468C0.799734 30.0029 0.610549 29.2462 0.460062 28.4809C0.305275 27.7155 0.193483 26.9416 0.11609 26.1676C0.0386963 25.3894 0 24.6112 0 23.8329C0 23.0504 0.0386963 22.2722 0.11609 21.4939C0.193483 20.72 0.305275 19.9461 0.460062 19.1807C0.610549 18.4154 0.799734 17.6586 1.02762 16.9148C1.2512 16.1667 1.51348 15.4314 1.81445 14.7134C2.11113 13.991 2.4465 13.2859 2.81627 12.598C3.18174 11.91 3.5816 11.2393 4.01587 10.59C4.45013 9.94078 4.91449 9.31733 5.40895 8.71108C5.90341 8.10913 6.42797 7.53298 6.97832 6.97832C7.53298 6.42797 8.10913 5.90341 8.71108 5.40895C9.31733 4.9145 9.94078 4.45013 10.59 4.01587C11.2393 3.5816 11.91 3.18174 12.598 2.81197C13.2859 2.4465 13.991 2.11113 14.7134 1.81445C15.4314 1.51347 16.1667 1.2512 16.9148 1.02762C17.6586 0.799733 18.4154 0.61055 19.1807 0.460062C19.9461 0.305275 20.72 0.193483 21.4939 0.11609C22.2722 0.0386963 23.0504 0 23.8329 0C24.6112 0 25.3894 0.0386963 26.1676 0.11609C26.9416 0.193483 27.7155 0.305275 28.4809 0.460062C29.2462 0.61055 30.0029 0.799733 30.7468 1.02762C31.4949 1.2512 32.2301 1.51347 32.9525 1.81445C33.6705 2.11113 34.3757 2.4465 35.0636 2.81197C35.7516 3.18174 36.4223 3.5816 37.0715 4.01587C37.7208 4.45013 38.3442 4.9145 38.9505 5.40895C39.5524 5.90341 40.1286 6.42797 40.6832 6.97832C41.2336 7.53298 41.7582 8.10913 42.2526 8.71108C42.7471 9.31733 43.2114 9.94078 43.6457 10.59C44.08 11.2393 44.4798 11.91 44.8496 12.598C45.2151 13.2859 45.5504 13.991 45.8471 14.7134C46.1481 15.4314 46.4104 16.1667 46.634 16.9148C46.8618 17.6586 47.051 18.4154 47.2058 19.1807C47.3563 19.9461 47.4724 20.72 47.5455 21.4939C47.6229 22.2722 47.6616 23.0504 47.6616 23.8329Z" fill="#2C92D5"/>
</g>
<path d="M27.3971 9.04639H15.5644C14.4938 9.04639 13.6167 9.92351 13.6167 10.9898V36.0525C13.6167 37.1231 14.4938 38.0002 15.5644 38.0002H32.7157C33.7863 38.0002 34.6592 37.1231 34.6592 36.0525V16.3085L27.3971 9.04639Z" fill="white"/>
<path d="M27.3975 9.04639V16.3085H34.6596" stroke="#3086F6" stroke-width="0.392751" stroke-miterlimit="10"/>
<path d="M18.2217 20.1997H30.0543V21.9196H18.2217V20.1997Z" fill="#2C92D5"/>
<path d="M18.2217 24.121H30.0543V25.8408H18.2217V24.121Z" fill="#2C92D5"/>
<path d="M18.2217 28.0466H26.7178V29.7664H18.2217V28.0466Z" fill="#2C92D5"/>
</svg>
