<svg width="40" height="44" viewBox="0 0 40 44" fill="none" xmlns="http://www.w3.org/2000/svg">
<mask id="mask0_203_4932" style="mask-type:luminance" maskUnits="userSpaceOnUse" x="11" y="0" width="18" height="20">
<path d="M11.3335 0H28.6668V19.5781H11.3335V0Z" fill="white"/>
</mask>
<g mask="url(#mask0_203_4932)">
<path d="M11.7812 14.8802C13.7968 17.1354 16.677 18.4219 19.7031 18.4219C22.7447 18.4219 25.651 17.1198 27.6614 14.8438C27.7135 14.7865 27.7551 14.724 27.7864 14.6562C27.8489 14.5104 27.8645 14.3438 27.8281 14.1927C27.1458 11.3906 25.1197 9.21875 22.526 8.29688C23.6301 7.45313 24.3385 6.125 24.3385 4.63542C24.3333 2.07812 22.2604 0 19.7031 0C17.1458 0 15.0781 2.07813 15.0781 4.625C15.0781 6.11979 15.7864 7.44271 16.8854 8.29167C14.3176 9.21354 12.2968 11.3542 11.5989 14.1198C11.552 14.2708 11.552 14.4479 11.6093 14.599C11.6458 14.7083 11.7031 14.8021 11.7812 14.8802ZM16.526 4.625C16.526 2.875 17.9531 1.44792 19.7031 1.44792C21.4583 1.44792 22.8854 2.875 22.8854 4.625C22.8854 6.38021 21.4635 7.79687 19.7135 7.80729C19.7031 7.80729 19.7031 7.80729 19.6979 7.80729C19.6874 7.80729 19.6874 7.80729 19.6822 7.80729C17.9426 7.79687 16.526 6.38021 16.526 4.625ZM19.6822 9.25521C19.6874 9.25521 19.6979 9.25521 19.7031 9.25521C19.7135 9.25521 19.7187 9.25521 19.7239 9.25521C22.7864 9.26042 25.4479 11.2604 26.3176 14.1667C24.5937 15.9531 22.2031 16.9688 19.7031 16.9688C17.2083 16.9688 14.8176 15.9479 13.0937 14.1562C13.9687 11.2604 16.6249 9.27083 19.6822 9.25521Z" fill="white"/>
</g>
<mask id="mask1_203_4932" style="mask-type:luminance" maskUnits="userSpaceOnUse" x="0" y="19" width="40" height="25">
<path d="M0 19.5781H40V43.3333H0V19.5781Z" fill="white"/>
</mask>
<g mask="url(#mask1_203_4932)">
<path d="M39.6249 36.1562L35.7811 23.0521C35.6717 22.6719 35.2863 22.4583 34.9009 22.5521L30.104 23.7656C29.9113 23.8177 29.7447 23.9427 29.6509 24.1094C29.5572 24.276 29.5311 24.4844 29.5884 24.6719L29.7082 25.0989C28.4634 25.0469 27.2342 24.7448 26.1249 24.1875L22.9061 22.5573C21.6197 21.9114 20.1509 21.7708 18.7603 22.1354L16.1978 22.8281L9.94779 23.0885L10.078 22.6823C10.1353 22.4948 10.1145 22.2917 10.0207 22.1146C9.92696 21.9427 9.7655 21.8177 9.57279 21.7604L4.80195 20.4583C4.42174 20.3542 4.04154 20.5677 3.91654 20.9375L0.150912 32.8698C0.0936217 33.0573 0.114453 33.2604 0.208204 33.4323C0.301955 33.6094 0.463413 33.7292 0.656121 33.7917L5.43216 35.0937C5.49466 35.1094 5.56237 35.1198 5.61966 35.1198C5.93216 35.1198 6.21341 34.9271 6.30716 34.6146V34.6094L8.0207 36.8177C9.29675 38.4739 10.8488 39.9062 12.6353 41.0833L15.3592 42.8646C15.8384 43.1719 16.3853 43.3281 16.9322 43.3281C17.5728 43.3281 18.2134 43.1146 18.7238 42.6979C19.1613 42.3437 19.4634 41.8698 19.604 41.3489C20.0884 41.75 20.6717 41.9427 21.2655 41.9427C21.953 41.9427 22.6457 41.6771 23.1405 41.1458C23.3957 40.8802 23.5676 40.5677 23.677 40.2344C24.1301 40.5104 24.6353 40.6458 25.1405 40.6458C25.8749 40.6458 26.5988 40.3646 27.1353 39.8125C27.4634 39.4687 27.6822 39.026 27.7759 38.5625C28.8176 39.0469 30.104 38.8385 30.9061 37.9687C31.1457 37.7083 31.3176 37.4114 31.427 37.0937L33.1457 36.8021L33.427 37.7656C33.5207 38.0781 33.8072 38.2864 34.1197 38.2864C34.177 38.2864 34.2342 38.2812 34.302 38.2656L39.104 37.0469C39.2915 36.9948 39.4582 36.875 39.552 36.7083C39.6457 36.5417 39.677 36.3437 39.6249 36.1562ZM1.77591 32.6042L5.10404 22.0521L8.47904 22.9687L8.2707 23.6302V23.6354L5.35925 32.8646L5.1457 33.5208L1.77591 32.6042ZM29.8436 36.9948C29.4113 37.4583 28.6301 37.5104 28.1301 37.1146L25.0467 34.6719C24.7342 34.4271 24.2811 34.4792 24.0311 34.7864C23.7863 35.0989 23.8384 35.5573 24.1509 35.8021L25.953 37.2292C26.2082 37.4323 26.3592 37.7135 26.3801 38.026C26.4009 38.3229 26.2915 38.6042 26.0884 38.8125C25.6197 39.3021 24.7811 39.3385 24.2655 38.8802L21.2915 36.2604C20.9947 36 20.5311 36.026 20.2655 36.3229C19.9999 36.6198 20.0311 37.0833 20.3332 37.3437L22.0363 38.8437C22.229 39.0156 22.3488 39.2396 22.354 39.4896C22.3592 39.7292 22.2759 39.9583 22.0936 40.1458C21.6926 40.5677 20.9686 40.6042 20.5207 40.2344L17.4165 37.625C16.6405 37.0781 15.8072 38.0677 16.4895 38.7448L17.9165 39.9427C18.1249 40.1614 18.2395 40.4219 18.2395 40.7135C18.2395 41.0469 18.0884 41.3489 17.8072 41.5729C17.3436 41.9479 16.6405 41.9792 16.1405 41.651L13.427 39.8698C11.7759 38.7864 10.3384 37.4583 9.16654 35.9323L6.84883 32.9323L7.203 31.7969L9.49466 24.5573L14.8645 24.3333L12.2863 27.9479C11.5155 29.0312 11.7238 30.4896 12.7863 31.3333C13.8749 32.2031 15.4947 32.1146 16.479 31.1406L17.6405 29.9792C18.1509 29.4687 18.854 29.1198 19.6092 29.0052C20.5988 28.8594 21.6145 29.1198 22.3801 29.7292L29.7186 35.5417C29.9478 35.7292 30.0936 35.9844 30.1092 36.2604C30.1301 36.526 30.0363 36.7864 29.8436 36.9948ZM31.4582 35.6354C31.3124 35.1562 31.0207 34.7396 30.6145 34.4114L23.2811 28.5989C22.203 27.7448 20.7811 27.375 19.3905 27.5781C18.3332 27.7344 17.3436 28.2292 16.6092 28.9583L15.453 30.1198C14.9947 30.5729 14.2082 30.6198 13.6874 30.2031C13.229 29.8437 13.1353 29.25 13.4634 28.7864L16.7499 24.1823L19.1405 23.5364C20.1822 23.2552 21.2915 23.3594 22.2499 23.8489L25.4738 25.4739C26.8957 26.1927 28.4738 26.5625 30.078 26.5625C30.104 26.5625 30.1249 26.5625 30.1457 26.5625L32.7395 35.4114L31.4582 35.6354ZM34.6301 36.7083L34.3592 35.7969L31.3749 25.6198C31.3749 25.6198 31.3749 25.6198 31.3749 25.6146L31.1978 24.9844L34.5936 24.1198L38.0259 35.8385L34.6301 36.7083Z" fill="white"/>
</g>
</svg>
