<svg width="37" height="56" viewBox="0 0 37 56" fill="none" xmlns="http://www.w3.org/2000/svg">
<path d="M7.40104 18.1146C7.40104 19.7292 7.68229 21.224 8.25 22.5833C8.81771 23.9479 9.60417 25.125 10.6042 26.1198C11.599 27.1094 12.7708 27.8906 14.1146 28.4531C15.4635 29.0208 16.9115 29.3021 18.4635 29.3021C20.0208 29.3021 21.4688 29.0208 22.8125 28.4531C24.1562 27.8906 25.3333 27.1094 26.3438 26.1198C27.3542 25.125 28.151 23.9479 28.7344 22.5833C29.3125 21.224 29.6042 19.7292 29.6042 18.1146C29.6042 16.4948 29.3125 15 28.7344 13.6406C28.151 12.276 27.3542 11.099 26.3438 10.1042C25.3333 9.11458 24.1562 8.33333 22.8125 7.77083C21.4688 7.20312 20.0208 6.92188 18.4635 6.92188C16.9115 6.92188 15.4635 7.20312 14.1146 7.77083C12.7708 8.33333 11.599 9.11458 10.6042 10.1042C9.60417 11.099 8.81771 12.276 8.25 13.6406C7.68229 15 7.40104 16.4948 7.40104 18.1146ZM30.3802 47.6719H22.125V55.8802H14.9844V47.6719H6.69792V40.5312H14.9844V35.9271C12.8646 35.5365 10.8906 34.7969 9.06771 33.7188C7.23958 32.6406 5.65625 31.3125 4.3125 29.7448C2.96875 28.1719 1.91146 26.3958 1.14583 24.4062C0.385416 22.4167 0 20.3229 0 18.1146C0 15.6354 0.494791 13.2969 1.47917 11.099C2.46875 8.90625 3.80208 6.98438 5.47917 5.33854C7.15625 3.69792 9.11458 2.39583 11.3594 1.4375C13.6042 0.479167 15.974 0 18.4635 0C20.9531 0 23.3229 0.479167 25.5677 1.4375C27.8125 2.39583 29.7812 3.69792 31.4688 5.33854C33.1615 6.98438 34.5052 8.90625 35.5052 11.099C36.5 13.2969 37 15.6354 37 18.1146C37 20.3229 36.6198 22.4115 35.8542 24.3854C35.0885 26.3646 34.0417 28.1354 32.7083 29.7083C31.375 31.276 29.8073 32.6042 27.9896 33.6823C26.1771 34.7604 24.224 35.5 22.125 35.8906V40.5312H30.3802V47.6719Z" fill="#FF7BAC"/>
</svg>
