<svg width="55" height="55" viewBox="0 0 55 55" fill="none" xmlns="http://www.w3.org/2000/svg">
<mask id="mask0_203_4768" style="mask-type:luminance" maskUnits="userSpaceOnUse" x="0" y="0" width="55" height="55">
<path d="M0 0H54.8333V54.4635H0V0Z" fill="white"/>
</mask>
<g mask="url(#mask0_203_4768)">
<path d="M34.0731 42.1562C28.0314 49.6771 16.6929 49.6771 10.646 42.1562C6.24495 36.6771 6.24495 28.7083 10.646 23.2292C16.6877 15.7031 28.0314 15.7031 34.0731 23.2292C38.4793 28.7083 38.4793 36.6771 34.0731 42.1562ZM54.8387 19.151L54.672 0.182292L35.8179 0.015625V6.30208H44.1668L35.0262 15.5C26.5939 9.19792 14.8022 10.0313 7.31786 17.5573C-1.1613 26.0885 -0.973804 40.0885 7.88557 48.375C15.8699 55.849 28.3699 55.9844 36.5054 48.6823C44.8127 41.224 45.9585 28.7604 39.4481 19.9479L48.5887 10.75V19.151H54.8387Z" fill="#00A7FF"/>
</g>
</svg>
