<svg width="35" height="42" viewBox="0 0 35 42" fill="none" xmlns="http://www.w3.org/2000/svg">
<path d="M32.0383 17.489C32.0341 17.5598 31.98 17.614 31.9092 17.614L30.3851 17.6348C30.2894 17.6348 30.2269 17.539 30.2644 17.4557L31.3054 15.1239C31.3221 15.0906 31.3221 15.0572 31.3096 15.0239L31.0389 14.3077C31.0139 14.2328 31.0556 14.1536 31.1305 14.137L31.9425 13.9329C31.9633 13.9288 31.9841 13.9288 32.0091 13.9329L32.0633 13.9496C32.1216 13.9663 32.159 14.0204 32.159 14.0787L32.0383 17.489ZM29.5065 17.6473C29.4316 17.6473 29.3733 17.589 29.3774 17.514L29.5107 14.6367C29.5107 14.5784 29.5523 14.5284 29.6065 14.5159L29.9771 14.4243C30.0229 14.4118 30.0728 14.4285 30.1062 14.4618L30.6267 15.0323C30.66 15.0697 30.6725 15.1239 30.6516 15.1697L29.6231 17.5682C29.6023 17.6181 29.5565 17.6473 29.5065 17.6473ZM20.1915 14.5409H5.65479V3.23131H20.1915V14.5409ZM34.3577 11.9092L33.604 10.406C33.5831 10.3685 33.554 10.3435 33.5124 10.3352L32.3839 10.1103C32.3589 10.1062 32.3381 10.0937 32.3214 10.0812L31.2346 9.09014C31.2304 9.08598 31.2263 9.08181 31.2221 9.07765L29.3941 6.86237C29.3858 6.85404 29.3774 6.84571 29.365 6.83739L25.6215 4.44305C25.559 4.40558 25.4799 4.42223 25.4424 4.48469L25.0093 5.19258C24.9719 5.25088 24.9885 5.33 25.051 5.36747L28.4655 7.55777C28.4822 7.5661 28.4947 7.57859 28.503 7.59108L30.0187 9.71891C30.0354 9.7439 30.0437 9.77721 30.0395 9.81052L29.9354 10.6059C29.9313 10.6225 29.9271 10.6433 29.9146 10.6558L28.9569 12.1424C28.9444 12.1632 28.9361 12.1882 28.9361 12.2132L28.9319 12.8836C28.9319 12.9336 28.9027 12.9794 28.8569 13.0002L28.757 13.046C28.7112 13.0668 28.682 13.1126 28.682 13.1626L28.7487 18.0762C28.7487 18.1345 28.7945 18.1886 28.8528 18.2011L31.8842 18.7383C31.9467 18.7508 31.9925 18.8049 31.9883 18.8715L31.9841 19.0381C31.9841 19.0464 31.9883 19.0506 31.9883 19.0589L32.1341 31.2055C32.1507 32.4172 32.1632 33.6706 31.7135 34.7532C31.3512 35.6235 30.4768 36.548 29.4441 36.5021C28.4239 36.4605 27.5994 35.4695 27.3162 34.5117C26.9748 33.3708 27.133 32.1007 27.2829 30.8765C27.3704 30.2061 27.4911 29.519 27.6202 28.7903C28.1199 26.0046 28.6862 22.8482 26.8582 20.304C25.9837 19.0839 24.7637 18.2053 23.4228 17.7264V1.32417C23.4228 0.59546 22.8274 0 22.0987 0H3.74349C3.01478 0 2.42348 0.59546 2.42348 1.32417V36.6146H1.00354C0.449718 36.6146 0 37.0643 0 37.6223V40.1873C0 40.7412 0.449718 41.1909 1.00354 41.1909H24.8386C25.3924 41.1909 25.8422 40.7412 25.8422 40.1873V37.6223C25.8422 37.0643 25.3924 36.6146 24.8386 36.6146H23.4228V19.1713C24.3306 19.5877 25.1509 20.2332 25.763 21.091C27.2579 23.173 26.7707 25.9088 26.296 28.553C26.167 29.265 26.0379 30.0062 25.9504 30.7099C25.788 32.0091 25.6048 33.4832 26.0254 34.899C26.4335 36.269 27.6619 37.7763 29.3899 37.8471C29.4316 37.8471 29.4732 37.8471 29.519 37.8471C31.1513 37.8471 32.4172 36.5688 32.9585 35.2696C33.5124 33.9329 33.4957 32.4755 33.479 31.1888L33.3333 18.9756H33.3208L33.5207 14.4909C33.5248 14.4451 33.5498 14.4035 33.5873 14.3827L33.783 14.2744C33.8247 14.2536 33.8496 14.2119 33.8496 14.1661L33.8955 12.9127C33.8955 12.8919 33.9038 12.8753 33.9121 12.8586L34.3535 12.0258C34.3743 11.9925 34.3743 11.9467 34.3577 11.9092Z" fill="#2C92D5"/>
</svg>
