<svg width="35" height="42" viewBox="0 0 35 42" fill="none" xmlns="http://www.w3.org/2000/svg">
<mask id="mask0_203_4604" style="mask-type:luminance" maskUnits="userSpaceOnUse" x="0" y="0" width="35" height="42">
<path d="M0 0H34.3785V41.5407H0V0Z" fill="white"/>
</mask>
<g mask="url(#mask0_203_4604)">
<path d="M32.0427 17.5099C32.0385 17.5807 31.9844 17.6348 31.9136 17.6348L30.3895 17.6556C30.2938 17.6556 30.2313 17.5598 30.2688 17.4766L31.3098 15.1447C31.3223 15.1114 31.3265 15.0781 31.314 15.0447L31.0433 14.3285C31.0183 14.2536 31.06 14.1745 31.1307 14.1578L31.9427 13.9538C31.9677 13.9496 31.9885 13.9496 32.0135 13.9538L32.0677 13.9704C32.126 13.9871 32.1634 14.0412 32.1593 14.0995L32.0427 17.5099ZM29.5109 17.6681C29.436 17.6681 29.3735 17.6098 29.3777 17.5348L29.5151 14.6575C29.5151 14.5992 29.5567 14.5492 29.6109 14.5367L29.9815 14.4451C30.0273 14.4326 30.0772 14.4493 30.1064 14.4826L30.6311 15.0531C30.6644 15.0905 30.6727 15.1447 30.656 15.1905L29.6275 17.589C29.6067 17.6389 29.5609 17.6681 29.5109 17.6681ZM20.1959 14.5617H5.65502V3.25212H20.1959V14.5617ZM34.3621 11.93L33.6084 10.4268C33.5875 10.3893 33.5542 10.3643 33.5168 10.356L32.3883 10.1312C32.3633 10.127 32.3425 10.1145 32.3258 10.102L31.239 9.11096C31.2348 9.10679 31.2307 9.10263 31.2265 9.09846L29.3985 6.88318C29.3902 6.87486 29.3818 6.86653 29.3693 6.8582L25.6217 4.46386C25.5634 4.42639 25.4801 4.44305 25.4426 4.50551L25.0137 5.2134C24.9763 5.27169 24.9929 5.35081 25.0512 5.38829L28.4699 7.57858C28.4866 7.58691 28.4949 7.5994 28.5074 7.61189L30.0231 9.73973C30.0398 9.76471 30.0481 9.79803 30.0439 9.83134L29.9398 10.6267C29.9357 10.6433 29.9315 10.6641 29.919 10.6766L28.9613 12.1632C28.9488 12.184 28.9404 12.209 28.9404 12.234L28.9363 12.9044C28.9363 12.9544 28.9071 13.0002 28.8613 13.021L28.7614 13.0668C28.7156 13.0876 28.6823 13.1334 28.6864 13.1834L28.7531 18.097C28.7531 18.1553 28.7989 18.2094 28.8572 18.2219L31.8844 18.7591C31.9511 18.7716 31.9927 18.8257 31.9927 18.8923L31.9885 19.0589C31.9844 19.0672 31.9927 19.0714 31.9927 19.0797L32.1384 31.2263C32.1551 32.438 32.1676 33.6914 31.7179 34.7741C31.3556 35.6443 30.477 36.5688 29.4485 36.523C28.4283 36.4813 27.6038 35.4903 27.3206 34.5325C26.9792 33.3916 27.1374 32.1215 27.2873 30.8973C27.3706 30.2269 27.4955 29.5398 27.6246 28.8111C28.1243 26.0254 28.6906 22.869 26.8626 20.3248C25.984 19.1047 24.7681 18.2261 23.4231 17.7472V1.34498C23.4231 0.616273 22.8318 0.020813 22.1031 0.020813H3.74788C3.01917 0.020813 2.42371 0.616273 2.42371 1.34498V36.6354H1.00793C0.454113 36.6354 0.00439453 37.0851 0.00439453 37.6431V40.2082C0.00439453 40.762 0.454113 41.2117 1.00793 41.2117H24.843C25.3968 41.2117 25.8466 40.762 25.8466 40.2082V37.6431C25.8466 37.0851 25.3968 36.6354 24.843 36.6354H23.4231V19.1921C24.335 19.6085 25.1553 20.254 25.7674 21.1118C27.2623 23.1938 26.7751 25.9296 26.3004 28.5738C26.1713 29.2858 26.0423 30.027 25.9548 30.7308C25.7924 32.0299 25.6092 33.504 26.0298 34.9198C26.4378 36.2898 27.6621 37.7972 29.3943 37.868C29.436 37.868 29.4776 37.868 29.5234 37.868C31.1557 37.868 32.4216 36.5896 32.9629 35.2904C33.5168 33.9537 33.5001 32.4963 33.4834 31.2096L33.3377 18.9964H33.3252L33.5251 14.5117C33.5292 14.4659 33.5542 14.4243 33.5917 14.4035L33.7874 14.2952C33.8291 14.2744 33.854 14.2327 33.854 14.1869L33.8998 12.9336C33.8998 12.9127 33.904 12.8961 33.9165 12.8794L34.3579 12.0466C34.3787 12.0133 34.3787 11.9675 34.3621 11.93Z" fill="#7CCBFF"/>
</g>
</svg>
