<svg width="24" height="24" viewBox="0 0 24 24" fill="none" xmlns="http://www.w3.org/2000/svg">
<path fill-rule="evenodd" clip-rule="evenodd" d="M9.52131 10.0804H6.79875C6.39926 10.0771 6.01482 10.2326 5.73001 10.5128C5.44519 10.7929 5.28332 11.1747 5.28003 11.5741V17.2276C5.28742 18.0591 5.96724 18.7274 6.79875 18.7204H9.52131C9.92077 18.7237 10.3052 18.5682 10.5901 18.2881C10.8749 18.008 11.0368 17.6262 11.04 17.2266V11.5741C11.0368 11.1747 10.8749 10.7929 10.5901 10.5128C10.3052 10.2326 9.92077 10.0771 9.52131 10.0804Z" stroke="black" stroke-width="1.5" stroke-linecap="round" stroke-linejoin="round"/>
<path fill-rule="evenodd" clip-rule="evenodd" d="M9.52131 4.32065H6.79875C5.98396 4.29805 5.3046 4.9392 5.28003 5.75393V6.72737C5.3046 7.54211 5.98396 8.18326 6.79875 8.16065H9.52131C10.3361 8.18326 11.0155 7.54211 11.04 6.72737V5.75393C11.0155 4.9392 10.3361 4.29805 9.52131 4.32065Z" stroke="black" stroke-width="1.5" stroke-linecap="round" stroke-linejoin="round"/>
<path fill-rule="evenodd" clip-rule="evenodd" d="M14.4787 12.9606H17.2003C17.5999 12.9642 17.9846 12.8088 18.2696 12.5286C18.5546 12.2484 18.7167 11.8665 18.72 11.4669V5.81437C18.7167 5.41489 18.5548 5.03308 18.27 4.75295C17.9852 4.47281 17.6007 4.31729 17.2012 4.32061H14.4787C14.0792 4.31729 13.6947 4.47281 13.4099 4.75295C13.1251 5.03308 12.9632 5.41489 12.96 5.81437V11.4669C12.9632 11.8663 13.1251 12.2481 13.4099 12.5283C13.6947 12.8084 14.0792 12.9639 14.4787 12.9606Z" stroke="black" stroke-width="1.5" stroke-linecap="round" stroke-linejoin="round"/>
<path fill-rule="evenodd" clip-rule="evenodd" d="M14.4787 18.7205H17.2003C18.0154 18.7436 18.6954 18.1023 18.72 17.2872V16.3137C18.6954 15.499 18.016 14.8579 17.2012 14.8805H14.4787C13.6639 14.8579 12.9845 15.499 12.96 16.3137V17.2862C12.984 18.1014 13.6635 18.743 14.4787 18.7205Z" stroke="black" stroke-width="1.5" stroke-linecap="round" stroke-linejoin="round"/>
</svg>
