<svg width="14" height="18" viewBox="0 0 14 18" fill="none" xmlns="http://www.w3.org/2000/svg">
<path fill-rule="evenodd" clip-rule="evenodd" d="M7.69723 0.833333C7.69723 0.373096 7.32414 0 6.8639 0C6.40366 0 6.03057 0.373096 6.03057 0.833333V1.30906C3.2038 1.71327 1.03057 4.14353 1.03057 7.08242L1.03057 10.4161C1.03056 10.4161 1.03057 10.416 1.03057 10.4161C1.03049 10.4177 1.02992 10.4289 1.02631 10.4507C1.02197 10.477 1.01426 10.5127 1.00155 10.5586C0.975779 10.6516 0.934761 10.7675 0.877459 10.9046C0.762572 11.1793 0.600604 11.4955 0.421474 11.8146C0.084686 12.4146 -0.0850766 13.1295 0.042372 13.8094C0.176775 14.5263 0.638268 15.1516 1.42645 15.4517C2.13054 15.7198 3.06776 15.9649 4.30545 16.1109C4.3349 16.1364 4.36972 16.1656 4.40973 16.1976C4.53497 16.2978 4.7139 16.4276 4.94003 16.5569C5.38884 16.8133 6.05242 17.0833 6.8639 17.0833C7.67538 17.0833 8.33896 16.8133 8.78777 16.5569C9.0139 16.4276 9.19283 16.2978 9.31807 16.1976C9.35808 16.1656 9.3929 16.1364 9.42235 16.1109C10.66 15.9649 11.5973 15.7198 12.3013 15.4517C13.0895 15.1516 13.551 14.5263 13.6854 13.8094C13.8129 13.1295 13.6431 12.4146 13.3063 11.8146C13.1272 11.4955 12.9652 11.1793 12.8503 10.9046C12.793 10.7675 12.752 10.6516 12.7262 10.5586C12.7135 10.5127 12.7058 10.477 12.7015 10.4507C12.6979 10.4288 12.6973 10.4179 12.6972 10.4163C12.6972 10.4162 12.6972 10.4163 12.6972 10.4163L12.6972 10.4093V7.08282C12.6972 4.144 10.5241 1.71334 7.69723 1.30906V0.833333ZM2.69723 7.08242C2.69723 4.78143 4.56251 2.91667 6.8639 2.91667C9.1652 2.91667 11.0306 4.78174 11.0306 7.08282V10.4167C11.0306 10.8024 11.1751 11.2186 11.3127 11.5476C11.4622 11.9051 11.6581 12.2833 11.853 12.6305C12.0425 12.968 12.0877 13.287 12.0473 13.5023C12.0139 13.6805 11.9248 13.8117 11.7083 13.8941C10.8126 14.2352 9.30051 14.5833 6.8639 14.5833C4.42729 14.5833 2.91524 14.2352 2.01952 13.8941C1.80297 13.8117 1.71391 13.6805 1.6805 13.5023C1.64015 13.287 1.68533 12.968 1.87481 12.6305C2.06968 12.2833 2.26559 11.9051 2.41508 11.5476C2.55269 11.2186 2.69723 10.8024 2.69723 10.4167V7.08242Z" fill="#344054"/>
</svg>
